<?xml version="1.0" encoding="UTF-8"?>
<svg xmlns="http://www.w3.org/2000/svg" xmlns:xlink="http://www.w3.org/1999/xlink" width="48pt" height="48pt" viewBox="0 0 48 48" version="1.1">
<g id="surface7157696">
<path style=" stroke:none;fill-rule:nonzero;fill:rgb(73.725492%,92.54902%,100%);fill-opacity:1;" d="M 24 48 C 10.746094 48 0 37.253906 0 24 C 0 10.746094 10.746094 0 24 0 C 37.253906 0 48 10.746094 48 24 C 48 37.253906 37.253906 48 24 48 Z M 24 48 "/>
<path style=" stroke:none;fill-rule:nonzero;fill:rgb(0.784314%,46.666667%,74.117649%);fill-opacity:1;" d="M 29.601562 10.398438 C 28.238281 9.359375 27.28125 8 24 8 C 20.71875 8 19.761719 9.441406 18.398438 10.398438 C 17.039062 11.359375 13.601562 11.601562 13.601562 14.398438 C 13.601562 17.199219 16 17.601562 16 17.601562 L 32 17.601562 C 32 17.601562 34.398438 17.199219 34.398438 14.398438 C 34.398438 11.601562 30.960938 11.441406 29.601562 10.398438 Z M 29.601562 10.398438 "/>
<path style=" stroke:none;fill-rule:nonzero;fill:rgb(100%,65.490198%,14.901961%);fill-opacity:1;" d="M 16 22.398438 C 16 23.761719 14.960938 24.800781 13.601562 24.800781 C 12.238281 24.800781 11.199219 23.761719 11.199219 22.398438 C 11.199219 21.039062 12.238281 20 13.601562 20 C 14.960938 20 16 21.039062 16 22.398438 Z M 34.398438 20 C 33.039062 20 32 21.039062 32 22.398438 C 32 23.761719 33.039062 24.800781 34.398438 24.800781 C 35.761719 24.800781 36.800781 23.761719 36.800781 22.398438 C 36.800781 21.039062 35.761719 20 34.398438 20 Z M 34.398438 20 "/>
<path style=" stroke:none;fill-rule:nonzero;fill:rgb(100%,71.764708%,30.19608%);fill-opacity:1;" d="M 13.601562 24 C 13.601562 17.519531 18.238281 12.800781 24 12.800781 C 30.398438 12.800781 34.398438 17.519531 34.398438 24 L 34.398438 27.199219 L 13.601562 27.199219 Z M 13.601562 24 "/>
<path style=" stroke:none;fill-rule:nonzero;fill:rgb(25.882354%,25.882354%,25.882354%);fill-opacity:1;" d="M 37.601562 29.601562 L 39.199219 28.800781 C 39.199219 28.800781 35.761719 24 30.320312 24 L 27.039062 24 C 26.71875 25.359375 25.441406 26.398438 23.921875 26.398438 C 22.398438 26.398438 21.199219 25.359375 20.800781 24 L 17.28125 24 C 12.238281 24 8.800781 28.800781 8.800781 28.800781 L 10.398438 29.601562 L 8.800781 31.601562 L 10.398438 32 L 9.601562 34.800781 L 11.199219 35.199219 L 11.199219 37.601562 L 12.800781 37.601562 L 14.398438 39.199219 L 16 38.398438 L 17.601562 40 L 19.199219 39.199219 L 20.71875 40 L 22.398438 39.199219 L 24 40 L 25.601562 39.199219 L 27.121094 40 L 28.800781 39.199219 L 30.320312 40 L 32 38.398438 L 33.601562 39.199219 L 35.199219 37.601562 L 36.800781 37.601562 L 36.800781 35.199219 L 38.398438 35.199219 L 37.601562 32 L 39.199219 31.679688 Z M 24 12.800781 C 21.359375 12.800781 18.960938 13.761719 17.199219 15.441406 C 18.640625 16.71875 21.121094 17.601562 24 17.601562 C 26.960938 17.601562 29.601562 16.71875 30.960938 15.359375 C 29.199219 13.761719 26.878906 12.800781 24 12.800781 Z M 24 12.800781 "/>
<path style=" stroke:none;fill-rule:nonzero;fill:rgb(93.725491%,92.156863%,91.37255%);fill-opacity:1;" d="M 30.800781 35.199219 C 29.601562 35.199219 27.519531 34.398438 24 34.398438 C 20.480469 34.398438 18.480469 35.199219 17.199219 35.199219 C 15.921875 35.199219 15.199219 34.320312 15.199219 33.199219 L 15.199219 29.199219 C 15.199219 28.078125 16.078125 27.199219 17.199219 27.199219 C 18.320312 27.199219 19.839844 28 24 28 C 28.160156 28 29.839844 27.199219 30.800781 27.199219 C 31.761719 27.199219 32.800781 28.078125 32.800781 29.199219 L 32.800781 33.199219 C 32.800781 34.320312 32 35.199219 30.800781 35.199219 Z M 30.800781 35.199219 "/>
<path style=" stroke:none;fill-rule:nonzero;fill:rgb(84.313726%,80.000001%,78.431374%);fill-opacity:1;" d="M 20 33.601562 L 18.398438 33.601562 L 18.398438 27.359375 C 18.800781 27.441406 19.359375 27.601562 20 27.679688 Z M 28 27.679688 L 28 33.601562 L 29.601562 33.601562 L 29.601562 27.359375 C 29.199219 27.519531 28.640625 27.601562 28 27.679688 Z M 24.800781 28 C 24.558594 28 24.238281 28 24 28 C 23.761719 28 23.441406 28 23.199219 28 L 23.199219 33.601562 L 24.800781 33.601562 Z M 24.800781 28 "/>
<path style=" stroke:none;fill-rule:nonzero;fill:rgb(100%,54.11765%,50.196081%);fill-opacity:1;" d="M 30.800781 35.199219 C 29.601562 35.199219 27.519531 34.398438 24 34.398438 C 20.480469 34.398438 18.480469 35.199219 17.199219 35.199219 C 15.921875 35.199219 15.199219 34.320312 15.199219 33.199219 L 15.199219 32 C 15.199219 32 15.679688 33.601562 16.800781 33.601562 C 17.921875 33.601562 19.839844 32 24 32 C 28.160156 32 30.238281 33.601562 31.199219 33.601562 C 32.160156 33.601562 32.800781 32 32.800781 32 L 32.800781 33.199219 C 32.800781 34.320312 32 35.199219 30.800781 35.199219 Z M 30.800781 35.199219 "/>
<path style=" stroke:none;fill-rule:nonzero;fill:rgb(47.058824%,27.843139%,9.803922%);fill-opacity:1;" d="M 26.398438 21.199219 C 26.398438 20.558594 26.960938 20 27.601562 20 C 28.238281 20 28.800781 20.558594 28.800781 21.199219 C 28.800781 21.839844 28.238281 22.398438 27.601562 22.398438 C 26.960938 22.398438 26.398438 21.839844 26.398438 21.199219 M 19.199219 21.199219 C 19.199219 21.839844 19.761719 22.398438 20.398438 22.398438 C 21.039062 22.398438 21.601562 21.839844 21.601562 21.199219 C 21.601562 20.558594 21.039062 20 20.398438 20 C 19.761719 20 19.199219 20.558594 19.199219 21.199219 "/>
<path style=" stroke:none;fill-rule:nonzero;fill:rgb(100%,56.078434%,0%);fill-opacity:1;" d="M 25.839844 19.519531 C 25.601562 20 25.199219 20.878906 24.800781 20.640625 C 24.71875 20.398438 24.480469 20.160156 24.078125 20.160156 C 24.078125 20.160156 24.078125 20.160156 24 20.160156 C 24 20.160156 24 20.160156 23.921875 20.160156 C 23.519531 20.160156 23.28125 20.398438 23.199219 20.640625 C 22.800781 20.878906 22.320312 19.921875 22.160156 19.519531 C 21.921875 19.121094 21.761719 18.800781 21.921875 19.679688 C 22 20.078125 22.078125 19.839844 22.160156 20.320312 C 22.238281 20.558594 22.320312 21.441406 22.398438 21.679688 C 22.480469 21.761719 22.558594 21.921875 22.640625 22.078125 C 22.71875 22.160156 22.71875 22.238281 22.960938 22.320312 C 23.199219 22.398438 23.199219 22.398438 23.28125 22.398438 L 23.519531 22.398438 C 23.601562 22.398438 23.601562 22.398438 23.679688 22.398438 C 23.761719 22.398438 23.839844 22.398438 23.921875 22.320312 C 24 22.320312 24 22.238281 24.078125 22.238281 C 24.160156 22.238281 24.160156 22.320312 24.238281 22.320312 C 24.320312 22.320312 24.398438 22.398438 24.480469 22.398438 C 24.558594 22.398438 24.558594 22.398438 24.640625 22.398438 L 24.878906 22.398438 C 24.960938 22.398438 24.960938 22.398438 25.121094 22.320312 C 25.28125 22.238281 25.359375 22.160156 25.441406 22.078125 C 25.519531 21.921875 25.601562 21.839844 25.679688 21.679688 C 25.761719 21.441406 25.839844 20.558594 25.921875 20.320312 C 26 19.921875 26.078125 20.160156 26.160156 19.679688 C 26.238281 18.800781 26.078125 19.121094 25.839844 19.519531 Z M 25.839844 19.519531 "/>
<path style=" stroke:none;fill-rule:nonzero;fill:rgb(24.313726%,15.294118%,13.725491%);fill-opacity:1;" d="M 28.960938 18.878906 C 28.960938 18.800781 28.878906 18.800781 28.878906 18.71875 C 28.800781 18.640625 28.640625 18.480469 28.480469 18.320312 C 28.398438 18.238281 28.320312 18.238281 28.160156 18.160156 C 28.078125 18.078125 27.921875 18.078125 27.839844 18.078125 C 27.761719 18.078125 27.601562 18.160156 27.441406 18.238281 C 27.28125 18.320312 27.121094 18.398438 26.960938 18.558594 C 26.398438 19.039062 26 19.761719 25.761719 20.320312 C 25.679688 20.640625 25.601562 20.878906 25.601562 21.039062 C 25.601562 21.199219 25.519531 21.359375 25.519531 21.359375 C 25.519531 21.359375 25.519531 21.28125 25.519531 21.039062 C 25.519531 20.878906 25.519531 20.558594 25.519531 20.238281 C 25.601562 19.601562 25.761719 18.71875 26.320312 17.921875 C 26.480469 17.761719 26.640625 17.519531 26.800781 17.359375 C 26.960938 17.199219 27.199219 17.039062 27.441406 16.960938 C 27.761719 16.878906 28 16.878906 28.238281 16.878906 C 28.480469 16.878906 28.71875 16.960938 28.878906 17.039062 C 29.28125 17.199219 29.519531 17.359375 29.761719 17.519531 C 29.839844 17.601562 29.921875 17.679688 30 17.679688 C 30.078125 17.761719 30.078125 17.761719 30.078125 17.761719 C 30.398438 18.078125 30.398438 18.558594 30.078125 18.878906 C 29.761719 19.199219 29.28125 19.199219 28.960938 18.878906 C 29.121094 19.039062 29.039062 19.039062 28.960938 18.878906 Z M 17.761719 17.921875 C 17.441406 18.238281 17.519531 18.71875 17.839844 19.039062 C 18.160156 19.359375 18.640625 19.28125 18.960938 18.960938 L 19.039062 18.878906 L 19.121094 18.800781 C 19.199219 18.71875 19.359375 18.558594 19.519531 18.398438 C 19.601562 18.320312 19.679688 18.320312 19.839844 18.238281 C 19.921875 18.160156 20.078125 18.160156 20.160156 18.160156 C 20.238281 18.160156 20.398438 18.238281 20.558594 18.320312 C 20.71875 18.398438 20.878906 18.480469 21.039062 18.640625 C 21.601562 19.121094 22 19.839844 22.238281 20.398438 C 22.320312 20.71875 22.398438 20.960938 22.398438 21.121094 C 22.398438 21.28125 22.480469 21.441406 22.480469 21.441406 C 22.480469 21.441406 22.480469 21.359375 22.480469 21.121094 C 22.480469 20.960938 22.480469 20.640625 22.480469 20.320312 C 22.398438 19.679688 22.238281 18.800781 21.679688 18 C 21.519531 17.839844 21.359375 17.601562 21.199219 17.441406 C 21.039062 17.28125 20.800781 17.121094 20.558594 17.039062 C 20.238281 16.960938 20 16.960938 19.761719 16.960938 C 19.519531 16.960938 19.28125 17.039062 19.121094 17.121094 C 18.71875 17.28125 18.480469 17.441406 18.238281 17.601562 C 18.160156 17.679688 18.078125 17.761719 18 17.761719 C 17.839844 17.839844 17.761719 17.921875 17.761719 17.921875 Z M 17.761719 17.921875 "/>
</g>
</svg>
