<?xml version="1.0" encoding="UTF-8"?>
<svg xmlns="http://www.w3.org/2000/svg" xmlns:xlink="http://www.w3.org/1999/xlink" width="48pt" height="48pt" viewBox="0 0 48 48" version="1.1">
<g id="surface7155189">
<path style=" stroke:none;fill-rule:nonzero;fill:rgb(80.000001%,80.000001%,80.000001%);fill-opacity:1;" d="M 24 48 C 10.746094 48 0 37.253906 0 24 C 0 10.746094 10.746094 0 24 0 C 37.253906 0 48 10.746094 48 24 C 48 37.253906 37.253906 48 24 48 Z M 24 48 "/>
<path style=" stroke:none;fill-rule:nonzero;fill:rgb(98.431373%,54.901963%,0%);fill-opacity:1;" d="M 17.601562 31.199219 L 30.398438 31.199219 L 30.398438 42.398438 L 17.601562 42.398438 Z M 17.601562 31.199219 "/>
<path style=" stroke:none;fill-rule:nonzero;fill:rgb(25.882354%,25.882354%,25.882354%);fill-opacity:1;" d="M 16.800781 34.398438 L 16 42.398438 L 24 42.398438 L 20 36.800781 Z M 31.199219 34.398438 L 32 42.398438 L 24 42.398438 L 28.800781 34.398438 Z M 31.199219 34.398438 "/>
<path style=" stroke:none;fill-rule:nonzero;fill:rgb(100%,65.490198%,14.901961%);fill-opacity:1;" d="M 33.429688 24.574219 C 33.550781 23.957031 33.839844 23.378906 34.253906 22.917969 C 34.582031 22.546875 35.113281 22.242188 35.539062 22.488281 C 35.949219 22.722656 36 23.300781 36 23.785156 C 36 24.621094 36 25.460938 35.992188 26.296875 C 35.988281 26.757812 35.980469 27.222656 35.847656 27.660156 C 35.710938 28.125 35.4375 28.53125 35.164062 28.925781 C 34.933594 29.25 34.703125 29.574219 34.464844 29.890625 C 34.253906 30.171875 33.957031 30.480469 33.628906 30.382812 C 33.511719 30.347656 33.414062 30.261719 33.324219 30.179688 C 33.148438 30.027344 32.976562 29.875 32.800781 29.722656 Z M 14.570312 24.574219 C 14.449219 23.957031 14.160156 23.378906 13.746094 22.917969 C 13.417969 22.546875 12.886719 22.242188 12.460938 22.488281 C 12.050781 22.722656 12 23.300781 12 23.785156 C 12 24.621094 12 25.460938 12.007812 26.296875 C 12.011719 26.757812 12.019531 27.222656 12.152344 27.660156 C 12.289062 28.125 12.5625 28.53125 12.835938 28.925781 C 13.066406 29.25 13.296875 29.574219 13.535156 29.890625 C 13.746094 30.171875 14.042969 30.480469 14.371094 30.382812 C 14.488281 30.347656 14.585938 30.261719 14.675781 30.179688 C 14.851562 30.027344 15.023438 29.875 15.199219 29.722656 Z M 14.570312 24.574219 "/>
<path style=" stroke:none;fill-rule:nonzero;fill:rgb(98.431373%,54.901963%,0%);fill-opacity:1;" d="M 35.199219 25.601562 C 35.199219 27.265625 34.398438 28 34.398438 28 L 34.398438 26.398438 C 33.957031 26.398438 33.601562 26.042969 33.601562 25.601562 C 33.601562 25.160156 33.957031 24.800781 34.398438 24.800781 C 34.839844 24.800781 35.199219 25.160156 35.199219 25.601562 Z M 12.800781 25.601562 C 12.800781 27.265625 13.601562 28 13.601562 28 L 13.601562 26.398438 C 14.042969 26.398438 14.398438 26.042969 14.398438 25.601562 C 14.398438 25.160156 14.042969 24.800781 13.601562 24.800781 C 13.160156 24.800781 12.800781 25.160156 12.800781 25.601562 Z M 12.800781 25.601562 "/>
<path style=" stroke:none;fill-rule:nonzero;fill:rgb(100%,71.764708%,30.19608%);fill-opacity:1;" d="M 22.398438 39.199219 C 19.949219 39.199219 14.398438 32.933594 14.398438 30.398438 L 14.398438 16.800781 C 14.398438 16.800781 14.632812 10.398438 24 10.398438 C 33.367188 10.398438 33.601562 16.800781 33.601562 16.800781 L 33.601562 30.398438 C 33.601562 32.867188 27.949219 39.199219 25.601562 39.199219 Z M 22.398438 39.199219 "/>
<path style=" stroke:none;fill-rule:nonzero;fill:rgb(25.882354%,25.882354%,25.882354%);fill-opacity:1;" d="M 24.800781 24 C 24.800781 20.902344 26.300781 20.808594 28.058594 20.808594 C 31.683594 20.808594 32.742188 22.332031 32.800781 22.402344 L 32.800781 23.199219 C 32.257812 24.375 31.503906 25.59375 30.390625 26.066406 C 30.015625 26.230469 29.609375 26.285156 29.207031 26.328125 C 28.8125 26.371094 28.402344 26.398438 28 26.398438 C 24.867188 26.398438 24.800781 24 24.800781 24 Z M 23.199219 24 C 23.199219 20.902344 21.699219 20.808594 19.941406 20.808594 C 16.316406 20.808594 15.257812 22.332031 15.199219 22.402344 L 15.199219 23.199219 C 15.742188 24.375 16.496094 25.59375 17.609375 26.066406 C 17.984375 26.230469 18.390625 26.285156 18.792969 26.328125 C 19.1875 26.371094 19.597656 26.398438 20 26.398438 C 23.132812 26.398438 23.199219 24 23.199219 24 Z M 23.199219 24 "/>
<path style=" stroke:none;fill-rule:nonzero;fill:rgb(25.882354%,25.882354%,25.882354%);fill-opacity:1;" d="M 14.398438 22.402344 L 33.601562 22.402344 L 33.601562 23.199219 L 14.398438 23.199219 Z M 14.398438 22.402344 "/>
<path style=" stroke:none;fill-rule:nonzero;fill:rgb(25.882354%,25.882354%,25.882354%);fill-opacity:1;" d="M 24 5.601562 C 19.839844 5.601562 19.199219 8 19.199219 8 C 19.199219 8 19.25 8 17.601562 8 C 13.691406 8 12.800781 10.898438 12.800781 16 L 12.800781 22.398438 L 15.199219 24.800781 L 15.199219 20 C 15.199219 20 14.347656 12 21.601562 12 L 24 13.601562 L 26.398438 12 C 33.601562 12 32.800781 20 32.800781 20 L 32.800781 24.800781 L 35.199219 22.398438 C 35.199219 22.398438 35.199219 19.601562 35.199219 16 C 35.199219 5.6875 28.160156 5.601562 24 5.601562 Z M 24 5.601562 "/>
<path style=" stroke:none;fill-rule:nonzero;fill:rgb(98.431373%,54.901963%,0%);fill-opacity:1;" d="M 20.800781 32 L 27.199219 32 L 27.199219 33.601562 L 20.800781 33.601562 Z M 20.800781 32 "/>
</g>
</svg>
