<?xml version="1.0" encoding="UTF-8"?>
<svg xmlns="http://www.w3.org/2000/svg" xmlns:xlink="http://www.w3.org/1999/xlink" width="48pt" height="48pt" viewBox="0 0 48 48" version="1.1">
<g id="surface7155017">
<path style=" stroke:none;fill-rule:nonzero;fill:rgb(80.000001%,80.000001%,80.000001%);fill-opacity:1;" d="M 24 48 C 10.746094 48 0 37.253906 0 24 C 0 10.746094 10.746094 0 24 0 C 37.253906 0 48 10.746094 48 24 C 48 37.253906 37.253906 48 24 48 Z M 24 48 "/>
<path style=" stroke:none;fill-rule:nonzero;fill:rgb(25.882354%,25.882354%,25.882354%);fill-opacity:1;" d="M 30.390625 32 L 17.589844 32 L 11.191406 42.398438 L 36.789062 42.398438 Z M 30.390625 32 "/>
<path style=" stroke:none;fill-rule:nonzero;fill:rgb(48.235294%,12.156863%,63.529414%);fill-opacity:1;" d="M 17.589844 30.398438 L 30.390625 30.398438 L 30.390625 42.398438 L 17.589844 42.398438 Z M 17.589844 30.398438 "/>
<path style=" stroke:none;fill-rule:nonzero;fill:rgb(62.7451%,32.549021%,5.490196%);fill-opacity:1;" d="M 27.988281 36 L 23.988281 42.398438 L 19.988281 36 Z M 14.390625 17.601562 C 14.390625 17.601562 12.308594 16.800781 11.191406 16.800781 C 10.070312 16.800781 10.390625 19.199219 10.390625 19.199219 C 10.390625 19.199219 11.03125 25.359375 11.988281 25.601562 L 12.789062 26.398438 Z M 35.109375 26.398438 L 35.910156 25.601562 C 36.949219 25.359375 37.511719 19.199219 37.511719 19.199219 C 37.511719 19.199219 37.828125 16.800781 36.710938 16.800781 C 35.589844 16.800781 32.789062 17.601562 32.789062 17.601562 Z M 35.109375 26.398438 "/>
<path style=" stroke:none;fill-rule:nonzero;fill:rgb(47.843137%,22.745098%,5.882353%);fill-opacity:1;" d="M 11.269531 18.71875 C 11.269531 18.71875 11.828125 17.601562 13.589844 20 C 15.191406 22.320312 11.988281 20 11.988281 20 L 11.988281 23.199219 C 11.988281 23.199219 10.949219 19.121094 11.269531 18.71875 Z M 36.628906 18.71875 C 36.628906 18.71875 36.070312 17.601562 34.308594 20 C 32.710938 22.320312 35.910156 20 35.910156 20 L 35.910156 23.199219 C 35.910156 23.199219 37.03125 19.121094 36.628906 18.71875 Z M 36.628906 18.71875 "/>
<path style=" stroke:none;fill-rule:nonzero;fill:rgb(75.686276%,43.137255%,7.843138%);fill-opacity:1;" d="M 31.109375 8 C 29.351562 6.878906 26.390625 5.601562 23.988281 5.601562 C 21.589844 5.601562 18.550781 6.878906 16.789062 8 C 14.390625 9.601562 12.789062 11.441406 12.789062 14.398438 C 12.789062 19.441406 12.789062 21.601562 12.789062 21.601562 C 12.789062 21.601562 12.789062 23.921875 12.789062 28 C 12.789062 30.960938 16.628906 33.839844 18.710938 35.679688 C 19.511719 36.398438 20.550781 36.800781 21.671875 36.800781 L 26.390625 36.800781 C 27.511719 36.800781 28.550781 36.398438 29.351562 35.679688 C 31.429688 33.839844 35.109375 30.960938 35.109375 28 C 35.109375 23.921875 35.109375 21.601562 35.109375 21.601562 C 35.109375 21.601562 35.109375 19.441406 35.109375 14.398438 C 35.109375 11.441406 33.589844 9.601562 31.109375 8 Z M 31.109375 8 "/>
<path style=" stroke:none;fill-rule:nonzero;fill:rgb(62.7451%,32.549021%,5.490196%);fill-opacity:1;" d="M 19.988281 28.800781 L 27.988281 28.800781 L 27.988281 30.398438 L 19.988281 30.398438 Z M 33.589844 20 L 31.988281 20 C 31.988281 19.441406 30.949219 18.71875 30.308594 18.398438 L 25.75 19.199219 L 25.511719 17.601562 L 30.550781 16.800781 L 30.789062 16.878906 C 31.03125 16.960938 33.589844 18.160156 33.589844 20 Z M 15.988281 20 L 14.390625 20 C 14.390625 18.160156 16.949219 16.960938 17.269531 16.878906 L 17.511719 16.800781 L 22.550781 17.601562 L 22.308594 19.199219 L 17.75 18.398438 C 16.949219 18.800781 15.988281 19.519531 15.988281 20 Z M 15.988281 20 "/>
<path style=" stroke:none;fill-rule:nonzero;fill:rgb(25.882354%,25.882354%,25.882354%);fill-opacity:1;" d="M 31.988281 20.800781 C 31.988281 19.441406 30.390625 18.398438 28.390625 18.398438 C 26.390625 18.398438 24.789062 19.441406 24.789062 20.800781 C 24.789062 22.160156 26.390625 23.199219 28.390625 23.199219 C 30.390625 23.199219 31.988281 22.160156 31.988281 20.800781 Z M 31.988281 20.800781 "/>
<path style=" stroke:none;fill-rule:nonzero;fill:rgb(25.882354%,25.882354%,25.882354%);fill-opacity:1;" d="M 21.589844 20 L 26.390625 20 L 26.390625 20.800781 L 21.589844 20.800781 Z M 21.589844 20 "/>
<path style=" stroke:none;fill-rule:nonzero;fill:rgb(25.882354%,25.882354%,25.882354%);fill-opacity:1;" d="M 23.191406 20.800781 C 23.191406 19.441406 21.589844 18.398438 19.589844 18.398438 C 17.589844 18.398438 15.988281 19.441406 15.988281 20.800781 C 15.988281 22.160156 17.589844 23.199219 19.589844 23.199219 C 21.589844 23.199219 23.191406 22.160156 23.191406 20.800781 Z M 23.191406 20.800781 "/>
<path style=" stroke:none;fill-rule:nonzero;fill:rgb(69.01961%,74.509805%,77.254903%);fill-opacity:1;" d="M 30.390625 21.601562 C 30.148438 21.601562 29.910156 21.519531 29.75 21.28125 C 29.429688 20.878906 28.949219 20.800781 28.789062 20.800781 C 28.308594 20.800781 27.988281 20.480469 27.988281 20 C 27.988281 19.519531 28.308594 19.199219 28.789062 19.199219 C 29.429688 19.199219 30.390625 19.519531 31.03125 20.320312 C 31.269531 20.640625 31.269531 21.199219 30.871094 21.441406 C 30.710938 21.519531 30.550781 21.601562 30.390625 21.601562 Z M 21.589844 21.601562 C 21.351562 21.601562 21.109375 21.519531 20.949219 21.28125 C 20.628906 20.878906 20.148438 20.800781 19.988281 20.800781 C 19.511719 20.800781 19.191406 20.480469 19.191406 20 C 19.191406 19.519531 19.511719 19.199219 19.988281 19.199219 C 20.628906 19.199219 21.589844 19.519531 22.230469 20.320312 C 22.46875 20.640625 22.46875 21.199219 22.070312 21.441406 C 21.910156 21.519531 21.75 21.601562 21.589844 21.601562 Z M 21.589844 21.601562 "/>
</g>
</svg>
