<?xml version="1.0" encoding="UTF-8"?>
<svg xmlns="http://www.w3.org/2000/svg" xmlns:xlink="http://www.w3.org/1999/xlink" width="48pt" height="48pt" viewBox="0 0 48 48" version="1.1">
<g id="surface7154832">
<path style=" stroke:none;fill-rule:nonzero;fill:rgb(92.54902%,94.117647%,94.509804%);fill-opacity:1;" d="M 24 48 C 10.746094 48 0 37.253906 0 24 C 0 10.746094 10.746094 0 24 0 C 37.253906 0 48 10.746094 48 24 C 48 37.253906 37.253906 48 24 48 Z M 24 48 "/>
<path style=" stroke:none;fill-rule:nonzero;fill:rgb(47.058824%,56.470591%,61.176473%);fill-opacity:1;" d="M 16 40.800781 C 15.921875 40.800781 15.839844 40.800781 15.761719 40.640625 C 15.28125 40.160156 15.199219 38.960938 15.199219 37.601562 C 15.199219 37.441406 15.199219 36.800781 15.199219 36.800781 L 14.398438 37.199219 L 14.398438 38.800781 C 14.398438 39.679688 14.640625 40.640625 15.121094 41.199219 C 15.359375 41.441406 15.679688 41.601562 16 41.601562 C 16.238281 41.601562 16.800781 41.601562 16.800781 41.601562 L 16.800781 40.800781 C 16.800781 40.800781 16.078125 40.800781 16 40.800781 Z M 16 40.800781 "/>
<path style=" stroke:none;fill-rule:nonzero;fill:rgb(69.01961%,74.509805%,77.254903%);fill-opacity:1;" d="M 15.199219 34.398438 L 13.601562 35.199219 L 13.601562 36 L 15.199219 35.199219 Z M 15.199219 34.398438 "/>
<path style=" stroke:none;fill-rule:nonzero;fill:rgb(47.058824%,56.470591%,61.176473%);fill-opacity:1;" d="M 15.199219 35.199219 L 13.601562 36 L 13.601562 36.800781 L 15.199219 36 Z M 15.199219 33.601562 L 13.601562 34.398438 L 13.601562 35.199219 L 15.199219 34.398438 Z M 15.199219 33.601562 "/>
<path style=" stroke:none;fill-rule:nonzero;fill:rgb(69.01961%,74.509805%,77.254903%);fill-opacity:1;" d="M 15.199219 36 L 13.601562 36.800781 L 13.601562 37.601562 L 15.199219 36.800781 Z M 15.199219 31.199219 L 13.601562 32 L 13.601562 32.800781 L 15.199219 32 Z M 15.199219 31.199219 "/>
<path style=" stroke:none;fill-rule:nonzero;fill:rgb(47.058824%,56.470591%,61.176473%);fill-opacity:1;" d="M 15.199219 32 L 13.601562 32.800781 L 13.601562 33.601562 L 15.199219 32.800781 Z M 15.199219 30.398438 C 15.199219 30.398438 15.28125 30.398438 14.398438 30.800781 C 13.519531 31.199219 13.601562 31.921875 13.601562 31.921875 L 13.601562 32 L 15.199219 31.199219 Z M 15.199219 30.398438 "/>
<path style=" stroke:none;fill-rule:nonzero;fill:rgb(69.01961%,74.509805%,77.254903%);fill-opacity:1;" d="M 15.199219 32.800781 L 13.601562 33.601562 L 13.601562 34.398438 L 15.199219 33.601562 Z M 30.398438 34.398438 L 17.601562 34.398438 L 16 42.398438 L 32 42.398438 Z M 30.398438 34.398438 "/>
<path style=" stroke:none;fill-rule:nonzero;fill:rgb(21.568628%,27.843139%,30.980393%);fill-opacity:1;" d="M 23.199219 39.199219 L 21.601562 42.398438 L 26.398438 42.398438 L 24.800781 39.199219 Z M 23.199219 39.199219 "/>
<path style=" stroke:none;fill-rule:nonzero;fill:rgb(100%,65.490198%,14.901961%);fill-opacity:1;" d="M 33.441406 24.558594 C 33.601562 23.921875 33.839844 23.359375 34.238281 22.878906 C 34.558594 22.480469 35.121094 22.238281 35.519531 22.480469 C 35.921875 22.71875 36 23.28125 36 23.761719 C 36 24.558594 36 25.441406 36 26.238281 C 36 26.71875 36 27.199219 35.839844 27.601562 C 35.679688 28.078125 35.441406 28.480469 35.121094 28.878906 C 34.878906 29.199219 34.640625 29.519531 34.398438 29.839844 C 34.160156 30.160156 33.921875 30.398438 33.601562 30.320312 C 33.519531 30.320312 33.359375 30.238281 33.28125 30.078125 C 33.121094 29.921875 32.960938 29.761719 32.71875 29.601562 Z M 14.558594 24.558594 C 14.398438 23.921875 14.160156 23.359375 13.761719 22.878906 C 13.441406 22.480469 12.878906 22.238281 12.480469 22.480469 C 12.078125 22.71875 12 23.28125 12 23.761719 C 12 24.558594 12 25.441406 12 26.238281 C 12 26.71875 12 27.199219 12.160156 27.601562 C 12.320312 28.078125 12.558594 28.480469 12.878906 28.878906 C 13.121094 29.199219 13.359375 29.519531 13.601562 29.839844 C 13.839844 30.160156 14.078125 30.398438 14.398438 30.320312 C 14.480469 30.320312 14.640625 30.238281 14.71875 30.078125 C 14.878906 29.921875 15.039062 29.761719 15.28125 29.601562 Z M 14.558594 24.558594 "/>
<path style=" stroke:none;fill-rule:nonzero;fill:rgb(98.431373%,54.901963%,0%);fill-opacity:1;" d="M 35.199219 25.601562 C 35.199219 27.28125 34.398438 28 34.398438 28 L 34.398438 26.398438 C 33.921875 26.398438 33.601562 26.078125 33.601562 25.601562 C 33.601562 25.121094 33.921875 24.800781 34.398438 24.800781 C 34.878906 24.800781 35.199219 25.121094 35.199219 25.601562 Z M 35.199219 25.601562 "/>
<path style=" stroke:none;fill-rule:nonzero;fill:rgb(100%,71.764708%,30.19608%);fill-opacity:1;" d="M 22.398438 40 C 20.640625 40 14.398438 34.398438 14.398438 32.800781 L 14.398438 16 C 14.398438 16 14.640625 9.601562 24 9.601562 C 33.359375 9.601562 33.601562 16 33.601562 16 L 33.601562 32.800781 C 33.601562 34.480469 27.199219 40 25.601562 40 Z M 22.398438 40 "/>
<path style=" stroke:none;fill-rule:nonzero;fill:rgb(98.431373%,54.901963%,0%);fill-opacity:1;" d="M 26.71875 33.441406 C 26.71875 33.441406 25.761719 32.800781 24 32.800781 C 22.238281 32.800781 21.28125 33.441406 21.28125 33.441406 L 20.320312 32.160156 C 20.398438 32.160156 21.679688 31.199219 24 31.199219 C 26.320312 31.199219 27.601562 32.078125 27.679688 32.160156 Z M 26.71875 33.441406 "/>
<path style=" stroke:none;fill-rule:nonzero;fill:rgb(25.882354%,25.882354%,25.882354%);fill-opacity:1;" d="M 22.398438 5.601562 C 19.121094 5.601562 12.800781 8.238281 12.800781 16 C 12.800781 19.601562 12.800781 22.398438 12.800781 22.398438 L 15.199219 24.800781 L 15.199219 20 C 15.199219 20 14.558594 11.921875 18.960938 10.480469 C 19.921875 10.160156 20.800781 11.039062 20.800781 12 C 20.800781 12.480469 21.121094 12.640625 21.601562 12.640625 L 26.398438 12.640625 C 26.878906 12.640625 27.199219 12.320312 27.199219 11.839844 C 27.199219 10.878906 28.078125 10.238281 29.039062 10.480469 C 33.601562 11.761719 32.800781 20 32.800781 20 L 32.800781 24.800781 L 35.199219 22.398438 C 35.199219 22.398438 35.199219 18.800781 35.199219 15.199219 C 35.199219 9.761719 31.121094 7.199219 27.199219 7.199219 C 26.238281 5.679688 23.359375 5.601562 22.398438 5.601562 Z M 22.398438 5.601562 "/>
<path style=" stroke:none;fill-rule:nonzero;fill:rgb(32.941177%,43.137255%,47.843137%);fill-opacity:1;" d="M 14.398438 24.800781 L 13.601562 24.800781 C 13.121094 24.800781 12.800781 25.121094 12.800781 25.601562 L 12.800781 26.398438 C 12.800781 26.878906 13.121094 27.199219 13.601562 27.199219 L 14.398438 27.199219 Z M 14.398438 24.800781 "/>
<path style=" stroke:none;fill-rule:nonzero;fill:rgb(47.058824%,56.470591%,61.176473%);fill-opacity:1;" d="M 15.199219 36.800781 L 13.601562 37.601562 C 13.601562 38.398438 14.398438 38 14.398438 38 L 15.199219 37.601562 Z M 15.199219 36.800781 "/>
<path style=" stroke:none;fill-rule:nonzero;fill:rgb(32.941177%,43.137255%,47.843137%);fill-opacity:1;" d="M 25.296875 20.859375 L 31.664062 18.472656 L 32.226562 19.96875 L 25.859375 22.359375 Z M 25.296875 20.859375 "/>
<path style=" stroke:none;fill-rule:nonzero;fill:rgb(32.941177%,43.137255%,47.843137%);fill-opacity:1;" d="M 15.699219 19.941406 L 16.261719 18.441406 L 22.628906 20.832031 L 22.066406 22.328125 Z M 15.699219 19.941406 "/>
<path style=" stroke:none;fill-rule:nonzero;fill:rgb(25.882354%,25.882354%,25.882354%);fill-opacity:1;" d="M 17.601562 22.398438 L 30.398438 22.398438 L 30.398438 23.199219 L 17.601562 23.199219 Z M 17.601562 22.398438 "/>
<path style=" stroke:none;fill-rule:nonzero;fill:rgb(25.882354%,25.882354%,25.882354%);fill-opacity:1;" d="M 16.238281 21.199219 C 16.238281 21.199219 17.359375 20.878906 18.878906 20.800781 C 20.398438 20.71875 22.160156 20.960938 22.160156 20.960938 C 22.800781 21.121094 23.359375 21.519531 23.199219 22.160156 L 22.398438 24.398438 C 22.398438 24.398438 22.078125 25.28125 21.199219 25.441406 C 20.238281 25.601562 18.078125 25.679688 17.28125 25.601562 C 16.640625 25.519531 15.921875 25.519531 15.679688 24.800781 C 15.601562 24.558594 15.441406 23.519531 15.199219 22.640625 C 15.039062 22 15.519531 21.359375 16.238281 21.199219 Z M 31.761719 21.199219 C 31.761719 21.199219 30.640625 20.878906 29.121094 20.800781 C 27.601562 20.71875 25.839844 20.960938 25.839844 20.960938 C 25.28125 21.039062 24.640625 21.519531 24.800781 22.160156 L 25.519531 24.398438 C 25.519531 24.398438 25.839844 25.28125 26.71875 25.441406 C 27.679688 25.601562 29.839844 25.679688 30.640625 25.601562 C 31.28125 25.519531 32 25.519531 32.238281 24.800781 C 32.320312 24.558594 32.480469 23.519531 32.71875 22.640625 C 32.960938 22 32.480469 21.359375 31.761719 21.199219 Z M 31.761719 21.199219 "/>
</g>
</svg>
