<?xml version="1.0" encoding="UTF-8"?>
<svg xmlns="http://www.w3.org/2000/svg" xmlns:xlink="http://www.w3.org/1999/xlink" width="48pt" height="48pt" viewBox="0 0 48 48" version="1.1">
<g id="surface7156731">
<path style=" stroke:none;fill-rule:nonzero;fill:rgb(94.509804%,76.862746%,5.882353%);fill-opacity:1;" d="M 24 48 C 10.746094 48 0 37.253906 0 24 C 0 10.746094 10.746094 0 24 0 C 37.253906 0 48 10.746094 48 24 C 48 37.253906 37.253906 48 24 48 Z M 24 48 "/>
<path style=" stroke:none;fill-rule:nonzero;fill:rgb(74.901962%,21.176471%,4.705882%);fill-opacity:1;" d="M 16.09375 28.742188 L 31.90625 28.742188 L 31.90625 38.226562 L 16.09375 38.226562 Z M 16.09375 28.742188 "/>
<path style=" stroke:none;fill-rule:nonzero;fill:rgb(100%,59.607846%,0%);fill-opacity:1;" d="M 24.003906 34.273438 L 18.46875 34.273438 L 18.46875 40.597656 L 29.535156 40.597656 L 29.535156 34.273438 Z M 24.003906 34.273438 "/>
<path style=" stroke:none;fill-rule:nonzero;fill:rgb(100%,71.764708%,30.19608%);fill-opacity:1;" d="M 23.652344 13.070312 L 16.679688 15.859375 C 16.328125 16.003906 16.09375 16.34375 16.09375 16.726562 L 16.09375 29.296875 C 16.09375 31.921875 17.375 34.382812 19.527344 35.886719 L 21.902344 37.550781 C 23.160156 38.433594 24.839844 38.433594 26.097656 37.550781 L 28.472656 35.886719 C 30.625 34.382812 31.90625 31.921875 31.90625 29.296875 L 31.90625 16.726562 C 31.90625 16.34375 31.671875 16.003906 31.320312 15.859375 L 24.34375 13.070312 C 24.125 12.984375 23.875 12.984375 23.652344 13.070312 Z M 23.652344 13.070312 "/>
<path style=" stroke:none;fill-rule:nonzero;fill:rgb(90.196079%,29.019609%,9.803922%);fill-opacity:1;" d="M 25.585938 8.976562 C 35.859375 8.976562 36.703125 16.984375 37.441406 20.835938 C 38.101562 24.277344 41.390625 26.820312 41.390625 30.324219 C 41.390625 37.4375 31.90625 38.226562 31.90625 38.226562 C 31.90625 38.226562 31.90625 21.386719 31.90625 21.070312 C 31.828125 15.933594 28.746094 14.511719 24.003906 14.511719 C 19.261719 14.511719 16.175781 16.011719 16.097656 21.070312 C 16.097656 21.386719 16.097656 38.226562 16.097656 38.226562 C 16.097656 38.226562 6.609375 37.4375 6.609375 30.324219 C 6.609375 26.371094 9.714844 24.433594 10.5625 20.835938 C 11.519531 16.757812 12.933594 7.394531 22.421875 7.394531 C 24.792969 7.394531 25.585938 8.976562 25.585938 8.976562 Z M 25.585938 8.976562 "/>
<path style=" stroke:none;fill-rule:nonzero;fill:rgb(93.725491%,92.156863%,91.37255%);fill-opacity:1;" d="M 26.375 25.578125 C 26.375 25.578125 26.847656 23.207031 28.902344 23.207031 C 30.644531 23.207031 31.117188 24.234375 31.117188 24.234375 C 31.117188 24.234375 30.40625 25.578125 29.140625 25.578125 C 27.875 25.578125 27.957031 25.578125 26.375 25.578125 Z M 21.632812 25.578125 C 21.632812 25.578125 21.15625 23.207031 19.101562 23.207031 C 17.363281 23.207031 16.890625 24.234375 16.890625 24.234375 C 16.890625 24.234375 17.601562 25.5 18.863281 25.5 C 20.128906 25.5 20.050781 25.578125 21.632812 25.578125 Z M 21.632812 25.578125 "/>
<path style=" stroke:none;fill-rule:nonzero;fill:rgb(18.039216%,49.019608%,19.607843%);fill-opacity:1;" d="M 29.535156 24.390625 C 29.535156 25.023438 28.984375 25.578125 28.351562 25.578125 C 27.71875 25.578125 27.164062 25.023438 27.164062 24.390625 C 27.164062 24.234375 27.164062 23.996094 27.324219 23.839844 C 27.640625 23.523438 28.035156 23.285156 28.589844 23.207031 C 29.140625 23.363281 29.535156 23.839844 29.535156 24.390625 Z M 18.46875 24.390625 C 18.46875 25.023438 19.023438 25.578125 19.65625 25.578125 C 20.289062 25.578125 20.839844 25.023438 20.839844 24.390625 C 20.839844 24.234375 20.839844 23.996094 20.683594 23.839844 C 20.367188 23.523438 19.972656 23.285156 19.417969 23.207031 C 18.863281 23.363281 18.46875 23.839844 18.46875 24.390625 Z M 18.46875 24.390625 "/>
<path style=" stroke:none;fill-rule:nonzero;fill:rgb(14.901961%,19.607843%,21.960784%);fill-opacity:1;" d="M 28.351562 23.996094 C 28.132812 23.996094 27.957031 24.171875 27.957031 24.390625 C 27.957031 24.609375 28.132812 24.785156 28.351562 24.785156 C 28.570312 24.785156 28.746094 24.609375 28.746094 24.390625 C 28.746094 24.171875 28.570312 23.996094 28.351562 23.996094 Z M 19.65625 23.996094 C 19.4375 23.996094 19.261719 24.171875 19.261719 24.390625 C 19.261719 24.609375 19.4375 24.785156 19.65625 24.785156 C 19.875 24.785156 20.050781 24.609375 20.050781 24.390625 C 20.050781 24.171875 19.875 23.996094 19.65625 23.996094 Z M 19.65625 23.996094 "/>
<path style=" stroke:none;fill-rule:nonzero;fill:rgb(25.882354%,25.882354%,25.882354%);fill-opacity:1;" d="M 26.375 25.578125 C 26.375 25.578125 26.847656 23.207031 28.902344 23.207031 C 30.644531 23.207031 31.117188 24.234375 31.117188 24.234375 C 31.117188 24.234375 31.117188 23.996094 28.746094 23.996094 C 27.480469 23.996094 26.375 25.578125 26.375 25.578125 Z M 26.375 25.578125 "/>
<path style=" stroke:none;fill-rule:nonzero;fill:rgb(25.882354%,25.882354%,25.882354%);fill-opacity:1;" d="M 24.792969 23.996094 C 26.929688 22.96875 27.957031 20.835938 29.535156 20.835938 C 31.117188 20.835938 31.90625 23.285156 31.90625 23.285156 C 31.90625 23.285156 31.117188 22.097656 29.535156 22.097656 C 28.113281 22.097656 26.613281 23.996094 24.792969 23.996094 Z M 21.632812 25.578125 C 21.632812 25.578125 21.15625 23.207031 19.101562 23.207031 C 17.363281 23.207031 16.890625 24.234375 16.890625 24.234375 C 16.890625 24.234375 16.890625 23.996094 19.261719 23.996094 C 20.523438 23.996094 21.632812 25.578125 21.632812 25.578125 Z M 21.632812 25.578125 "/>
<path style=" stroke:none;fill-rule:nonzero;fill:rgb(25.882354%,25.882354%,25.882354%);fill-opacity:1;" d="M 23.210938 23.996094 C 21.078125 22.96875 20.050781 20.835938 18.46875 20.835938 C 16.890625 20.835938 16.097656 23.285156 16.097656 23.285156 C 16.097656 23.285156 16.890625 22.097656 18.46875 22.097656 C 19.894531 22.097656 21.472656 23.996094 23.210938 23.996094 Z M 23.210938 23.996094 "/>
<path style=" stroke:none;fill-rule:nonzero;fill:rgb(100%,32.156864%,32.156864%);fill-opacity:1;" d="M 25.03125 31.902344 C 24.160156 31.902344 24.003906 32.691406 24.003906 32.691406 C 24.003906 32.691406 24.003906 31.902344 22.976562 31.902344 C 21.949219 31.902344 20.839844 32.691406 20.839844 32.691406 C 20.839844 32.691406 21.632812 34.273438 24.003906 34.273438 C 26.375 34.273438 27.164062 32.691406 27.164062 32.691406 C 27.164062 32.691406 25.898438 31.902344 25.03125 31.902344 Z M 25.03125 31.902344 "/>
<path style=" stroke:none;fill-rule:nonzero;fill:rgb(90.196079%,29.019609%,9.803922%);fill-opacity:1;" d="M 24.789062 12.933594 C 24.789062 12.933594 24 17.675781 20.046875 21.628906 C 17.8125 23.863281 16.09375 24.789062 16.09375 27.160156 L 15.304688 21.628906 L 15.304688 12.933594 Z M 24.789062 12.933594 "/>
<path style=" stroke:none;fill-rule:nonzero;fill:rgb(25.882354%,25.882354%,25.882354%);fill-opacity:1;" d="M 22.417969 40.601562 L 21.628906 39.019531 C 18.464844 37.4375 18.464844 35.066406 18.464844 35.066406 L 18.464844 40.601562 Z M 22.417969 40.601562 "/>
<path style=" stroke:none;fill-rule:nonzero;fill:rgb(25.882354%,25.882354%,25.882354%);fill-opacity:1;" d="M 25.582031 40.601562 L 26.371094 39.019531 C 29.535156 37.4375 29.535156 35.066406 29.535156 35.066406 L 29.535156 40.601562 Z M 25.582031 40.601562 "/>
</g>
</svg>
