<?xml version="1.0" encoding="UTF-8"?>
<svg xmlns="http://www.w3.org/2000/svg" xmlns:xlink="http://www.w3.org/1999/xlink" width="48pt" height="48pt" viewBox="0 0 48 48" version="1.1">
<g id="surface7156097">
<path style=" stroke:none;fill-rule:nonzero;fill:rgb(92.54902%,94.117647%,94.509804%);fill-opacity:1;" d="M 24 48 C 10.746094 48 0 37.253906 0 24 C 0 10.746094 10.746094 0 24 0 C 37.253906 0 48 10.746094 48 24 C 48 37.253906 37.253906 48 24 48 Z M 24 48 "/>
<path style=" stroke:none;fill-rule:nonzero;fill:rgb(100%,65.490198%,14.901961%);fill-opacity:1;" d="M 16.800781 26.398438 C 16.800781 28.160156 15.359375 29.601562 13.601562 29.601562 C 11.839844 29.601562 10.398438 28.160156 10.398438 26.398438 C 10.398438 24.640625 11.839844 23.199219 13.601562 23.199219 C 15.359375 23.199219 16.800781 24.640625 16.800781 26.398438 M 37.601562 26.398438 C 37.601562 24.640625 36.160156 23.199219 34.398438 23.199219 C 32.640625 23.199219 31.199219 24.640625 31.199219 26.398438 C 31.199219 28.160156 32.640625 29.601562 34.398438 29.601562 C 36.160156 29.601562 37.601562 28.160156 37.601562 26.398438 "/>
<path style=" stroke:none;fill-rule:nonzero;fill:rgb(100%,71.764708%,30.19608%);fill-opacity:1;" d="M 12.800781 20 C 12.800781 9.839844 35.199219 11.761719 35.199219 18.398438 L 35.199219 28.800781 C 35.199219 35.441406 28.640625 40.800781 24 40.800781 C 19.359375 40.800781 12.800781 35.441406 12.800781 28.800781 Z M 12.800781 20 "/>
<path style=" stroke:none;fill-rule:nonzero;fill:rgb(25.882354%,25.882354%,25.882354%);fill-opacity:1;" d="M 11.199219 20.238281 C 11.601562 15.441406 12.558594 10.71875 18.398438 9.601562 L 20 7.199219 L 24 7.199219 C 31.359375 7.199219 36.800781 13.199219 36.800781 21.601562 L 36.800781 24.320312 L 34.398438 27.199219 C 34.398438 27.199219 34.398438 27.601562 34.398438 22.398438 C 34.398438 14 23.601562 25.921875 18.398438 15.199219 C 18.160156 19.601562 13.601562 21.601562 13.601562 21.601562 L 13.601562 27.199219 L 11.199219 24.320312 L 11.199219 21.601562 C 11.199219 21.121094 11.121094 20.71875 11.199219 20.238281 "/>
<path style=" stroke:none;fill-rule:nonzero;fill:rgb(47.058824%,27.843139%,9.803922%);fill-opacity:1;" d="M 31.199219 27.199219 C 31.199219 28.078125 30.480469 28.800781 29.601562 28.800781 C 28.71875 28.800781 28 28.078125 28 27.199219 C 28 26.320312 28.71875 25.601562 29.601562 25.601562 C 30.480469 25.601562 31.199219 26.320312 31.199219 27.199219 M 20 27.199219 C 20 26.320312 19.28125 25.601562 18.398438 25.601562 C 17.519531 25.601562 16.800781 26.320312 16.800781 27.199219 C 16.800781 28.078125 17.519531 28.800781 18.398438 28.800781 C 19.28125 28.800781 20 28.078125 20 27.199219 "/>
<path style=" stroke:none;fill-rule:nonzero;fill:rgb(100%,56.862748%,0%);fill-opacity:1;" d="M 20.800781 34.398438 L 27.199219 34.398438 L 27.199219 36 L 20.800781 36 Z M 20.800781 34.398438 "/>
</g>
</svg>
