<?xml version="1.0" encoding="UTF-8"?>
<svg xmlns="http://www.w3.org/2000/svg" xmlns:xlink="http://www.w3.org/1999/xlink" width="48pt" height="48pt" viewBox="0 0 48 48" version="1.1">
<g id="surface7155976">
<path style=" stroke:none;fill-rule:nonzero;fill:rgb(40.000001%,40.000001%,40.000001%);fill-opacity:1;" d="M 24 48 C 10.746094 48 0 37.253906 0 24 C 0 10.746094 10.746094 0 24 0 C 37.253906 0 48 10.746094 48 24 C 48 37.253906 37.253906 48 24 48 Z M 24 48 "/>
<path style=" stroke:none;fill-rule:nonzero;fill:rgb(100%,65.490198%,14.901961%);fill-opacity:1;" d="M 9.996094 26.398438 C 9.355469 24.398438 9.273438 19.761719 10.472656 21.039062 C 12.632812 23.28125 13.515625 27.199219 16.394531 26.398438 C 18.074219 25.921875 15.273438 32 13.515625 32 C 11.753906 32 10.792969 28.398438 9.996094 26.398438 M 37.914062 26.398438 C 38.554688 24.398438 38.714844 19.761719 37.515625 21.039062 C 35.355469 23.28125 34.394531 27.199219 31.515625 26.398438 C 29.835938 25.921875 32.632812 32 34.394531 32 C 36.15625 32 37.195312 28.398438 37.914062 26.398438 "/>
<path style=" stroke:none;fill-rule:nonzero;fill:rgb(100%,71.764708%,30.19608%);fill-opacity:1;" d="M 12.792969 20 C 12.792969 9.839844 35.195312 11.761719 35.195312 18.398438 L 35.195312 28.800781 C 35.195312 35.441406 28.632812 40.800781 23.996094 40.800781 C 19.355469 40.800781 12.792969 35.441406 12.792969 28.800781 Z M 12.792969 20 "/>
<path style=" stroke:none;fill-rule:nonzero;fill:rgb(47.058824%,27.843139%,9.803922%);fill-opacity:1;" d="M 30.394531 27.199219 C 30.394531 28.078125 29.675781 28.800781 28.792969 28.800781 C 27.914062 28.800781 27.195312 28.078125 27.195312 27.199219 C 27.195312 26.320312 27.914062 25.601562 28.792969 25.601562 C 29.675781 25.601562 30.394531 26.320312 30.394531 27.199219 M 20.792969 27.199219 C 20.792969 26.320312 20.074219 25.601562 19.195312 25.601562 C 18.3125 25.601562 17.59375 26.320312 17.59375 27.199219 C 17.59375 28.078125 18.3125 28.800781 19.195312 28.800781 C 20.074219 28.800781 20.792969 28.078125 20.792969 27.199219 "/>
<path style=" stroke:none;fill-rule:nonzero;fill:rgb(30.588236%,20.392157%,18.039216%);fill-opacity:1;" d="M 26.234375 22.800781 C 26.234375 22.800781 26.3125 22.800781 26.554688 22.800781 C 26.714844 22.800781 27.035156 22.800781 27.355469 22.71875 C 27.996094 22.640625 28.953125 22.480469 29.835938 22.160156 C 30.234375 22 30.714844 21.839844 31.035156 21.601562 C 31.195312 21.519531 31.433594 21.359375 31.59375 21.28125 C 31.753906 21.121094 31.914062 21.039062 32.074219 20.878906 C 32.3125 20.640625 32.554688 20.398438 32.632812 20.238281 C 32.714844 20.078125 32.792969 20 32.792969 20 C 32.792969 20 32.714844 20.078125 32.714844 20.320312 C 32.632812 20.558594 32.554688 20.800781 32.3125 21.121094 C 32.234375 21.28125 32.074219 21.441406 31.996094 21.679688 C 31.914062 21.839844 31.675781 22 31.59375 22.238281 C 31.273438 22.640625 30.875 22.960938 30.472656 23.28125 C 29.59375 23.921875 28.714844 24.398438 27.914062 24.71875 C 27.515625 24.878906 27.195312 24.960938 27.035156 25.039062 C 26.792969 25.121094 26.632812 25.121094 26.632812 25.121094 Z M 21.753906 22.800781 C 21.753906 22.800781 21.675781 22.800781 21.433594 22.800781 C 21.273438 22.800781 20.953125 22.800781 20.632812 22.71875 C 19.996094 22.640625 19.035156 22.480469 18.15625 22.160156 C 17.753906 22 17.273438 21.839844 16.953125 21.601562 C 16.792969 21.519531 16.554688 21.359375 16.394531 21.28125 C 16.234375 21.121094 16.074219 21.039062 15.914062 20.878906 C 15.675781 20.640625 15.433594 20.398438 15.355469 20.238281 C 15.273438 20.078125 15.195312 20 15.195312 20 C 15.195312 20 15.273438 20.078125 15.273438 20.320312 C 15.355469 20.558594 15.433594 20.800781 15.675781 21.121094 C 15.753906 21.28125 15.914062 21.441406 15.996094 21.679688 C 16.074219 21.839844 16.3125 22 16.394531 22.238281 C 16.714844 22.640625 17.113281 22.960938 17.515625 23.28125 C 18.394531 23.921875 19.273438 24.398438 20.074219 24.71875 C 20.472656 24.878906 20.792969 24.960938 20.953125 25.039062 C 21.195312 25.121094 21.355469 25.121094 21.355469 25.121094 Z M 21.753906 22.800781 "/>
<path style=" stroke:none;fill-rule:nonzero;fill:rgb(100%,56.862748%,0%);fill-opacity:1;" d="M 20.792969 34.398438 L 27.195312 34.398438 L 27.195312 36 L 20.792969 36 Z M 20.792969 34.398438 "/>
<path style=" stroke:none;fill-rule:nonzero;fill:rgb(25.882354%,25.882354%,25.882354%);fill-opacity:1;" d="M 36.792969 21.921875 C 36.792969 10.398438 31.835938 7.199219 23.996094 7.199219 C 16.15625 7.199219 11.195312 10.398438 11.195312 21.839844 C 11.835938 24.480469 13.59375 27.199219 13.59375 27.199219 L 13.59375 19.121094 C 13.59375 17.921875 14.714844 17.039062 15.835938 17.359375 C 17.914062 17.839844 21.195312 18.398438 23.996094 18.398438 C 26.792969 18.398438 30.074219 17.839844 32.15625 17.359375 C 33.273438 17.121094 34.394531 18 34.394531 19.121094 L 34.394531 27.199219 C 34.394531 27.199219 36.15625 24.480469 36.792969 21.921875 Z M 36.792969 21.921875 "/>
</g>
</svg>
