<?xml version="1.0" encoding="UTF-8"?>
<svg xmlns="http://www.w3.org/2000/svg" xmlns:xlink="http://www.w3.org/1999/xlink" width="48pt" height="48pt" viewBox="0 0 48 48" version="1.1">
<g id="surface7155421">
<path style=" stroke:none;fill-rule:nonzero;fill:rgb(40.000001%,40.000001%,40.000001%);fill-opacity:1;" d="M 24 48 C 10.746094 48 0 37.253906 0 24 C 0 10.746094 10.746094 0 24 0 C 37.253906 0 48 10.746094 48 24 C 48 37.253906 37.253906 48 24 48 Z M 24 48 "/>
<path style=" stroke:none;fill-rule:nonzero;fill:rgb(25.882354%,25.882354%,25.882354%);fill-opacity:1;" d="M 26.199219 6.398438 C 26.199219 6.398438 25.75 5.601562 23 5.601562 C 20.25 5.601562 11 7.949219 11 19.199219 L 13.398438 35.199219 L 32.601562 35.199219 L 35 19.199219 C 35 6.5 26.199219 6.398438 26.199219 6.398438 Z M 25.398438 10.398438 C 30.277344 10.832031 31.875 15.605469 32.386719 19.199219 L 13.523438 19.199219 C 14.785156 11.199219 25.398438 10.398438 25.398438 10.398438 Z M 25.398438 10.398438 "/>
<path style=" stroke:none;fill-rule:nonzero;fill:rgb(100%,65.490198%,14.901961%);fill-opacity:1;" d="M 13.398438 23.203125 C 13.246094 22.804688 13.03125 22.433594 12.746094 22.117188 C 12.417969 21.746094 11.886719 21.441406 11.460938 21.6875 C 11.050781 21.921875 11 22.5 11 22.984375 C 11 23.824219 11 24.660156 11.007812 25.496094 C 11.011719 25.957031 11.019531 26.421875 11.152344 26.863281 C 11.289062 27.324219 11.5625 27.730469 11.835938 28.125 C 12.066406 28.449219 12.296875 28.773438 12.535156 29.09375 C 12.742188 29.371094 13.042969 29.679688 13.371094 29.582031 C 13.382812 29.578125 13.390625 29.570312 13.398438 29.566406 L 15 23.199219 Z M 34.539062 21.6875 C 34.113281 21.445312 33.582031 21.75 33.253906 22.121094 C 32.96875 22.433594 32.753906 22.804688 32.601562 23.203125 L 31 23.199219 L 32.601562 29.566406 C 32.609375 29.570312 32.617188 29.578125 32.628906 29.582031 C 32.957031 29.679688 33.253906 29.371094 33.464844 29.09375 C 33.699219 28.773438 33.933594 28.453125 34.160156 28.125 C 34.4375 27.730469 34.707031 27.324219 34.847656 26.863281 C 34.980469 26.421875 34.988281 25.957031 34.992188 25.496094 C 35 24.660156 35 23.824219 35 22.984375 C 35 22.5 34.949219 21.921875 34.539062 21.6875 Z M 34.539062 21.6875 "/>
<path style=" stroke:none;fill-rule:nonzero;fill:rgb(98.431373%,54.901963%,0%);fill-opacity:1;" d="M 17.351562 30.398438 L 28.550781 30.398438 L 28.550781 42.398438 L 17.351562 42.398438 Z M 34.199219 24.800781 C 34.199219 26.464844 33.398438 27.199219 33.398438 27.199219 L 33.398438 25.601562 C 32.957031 25.601562 32.601562 25.242188 32.601562 24.800781 C 32.601562 24.359375 32.957031 24 33.398438 24 C 33.839844 24 34.199219 24.359375 34.199219 24.800781 Z M 11.800781 24.800781 C 11.800781 26.464844 12.601562 27.199219 12.601562 27.199219 L 12.601562 25.601562 C 13.042969 25.601562 13.398438 25.242188 13.398438 24.800781 C 13.398438 24.359375 13.042969 24 12.601562 24 C 12.160156 24 11.800781 24.359375 11.800781 24.800781 Z M 11.800781 24.800781 "/>
<path style=" stroke:none;fill-rule:nonzero;fill:rgb(25.882354%,25.882354%,25.882354%);fill-opacity:1;" d="M 16.652344 36.800781 C 19.039062 36.800781 21.160156 39.128906 21.914062 41.394531 L 22.25 42.398438 L 15.800781 42.398438 Z M 29.398438 36.800781 C 27.011719 36.800781 24.890625 39.128906 24.136719 41.394531 L 23.800781 42.398438 L 30.25 42.398438 Z M 29.398438 36.800781 "/>
<path style=" stroke:none;fill-rule:nonzero;fill:rgb(100%,71.764708%,30.19608%);fill-opacity:1;" d="M 25.398438 10.398438 C 25.398438 10.398438 13.398438 11.300781 13.398438 20.800781 L 13.398438 29.601562 C 13.398438 33.199219 19.75 38.398438 22.199219 38.398438 L 23.800781 38.398438 C 26.152344 38.398438 32.601562 33.199219 32.601562 29.601562 L 32.601562 21.632812 C 32.480469 18.339844 31.527344 10.941406 25.398438 10.398438 Z M 25.398438 10.398438 "/>
<path style=" stroke:none;fill-rule:nonzero;fill:rgb(25.882354%,25.882354%,25.882354%);fill-opacity:1;" d="M 23.800781 22.398438 C 23.800781 22.398438 23.769531 25.601562 26.734375 25.601562 C 29.699219 25.601562 32.601562 22.601562 32.601562 21.601562 C 32.601562 20.601562 30.78125 20 28.933594 20 C 27.085938 20 23.800781 21.167969 23.800781 22.398438 Z M 22.199219 22.398438 C 22.199219 22.398438 22.230469 25.601562 19.265625 25.601562 C 16.300781 25.601562 13.398438 22.601562 13.398438 21.601562 C 13.398438 20.601562 15.21875 20 17.066406 20 C 18.914062 20 22.199219 21.167969 22.199219 22.398438 Z M 22.199219 22.398438 "/>
<path style=" stroke:none;fill-rule:nonzero;fill:rgb(25.882354%,25.882354%,25.882354%);fill-opacity:1;" d="M 20.601562 21.601562 L 25.398438 21.601562 L 25.398438 22.398438 L 20.601562 22.398438 Z M 20.601562 21.601562 "/>
<path style=" stroke:none;fill-rule:nonzero;fill:rgb(98.431373%,54.901963%,0%);fill-opacity:1;" d="M 19.800781 31.199219 L 26.199219 31.199219 L 26.199219 32.800781 L 19.800781 32.800781 Z M 19.800781 31.199219 "/>
<path style=" stroke:none;fill-rule:nonzero;fill:rgb(100%,71.764708%,30.19608%);fill-opacity:1;" d="M 24.609375 11.070312 L 26.199219 6.398438 L 26.1875 11.332031 Z M 24.609375 11.070312 "/>
</g>
</svg>
