<?xml version="1.0" encoding="UTF-8"?>
<svg xmlns="http://www.w3.org/2000/svg" xmlns:xlink="http://www.w3.org/1999/xlink" width="48pt" height="48pt" viewBox="0 0 48 48" version="1.1">
<g id="surface7155284">
<path style=" stroke:none;fill-rule:nonzero;fill:rgb(92.54902%,94.117647%,94.509804%);fill-opacity:1;" d="M 24 48 C 10.746094 48 0 37.253906 0 24 C 0 10.746094 10.746094 0 24 0 C 37.253906 0 48 10.746094 48 24 C 48 37.253906 37.253906 48 24 48 Z M 24 48 "/>
<path style=" stroke:none;fill-rule:nonzero;fill:rgb(75.686276%,43.137255%,7.843138%);fill-opacity:1;" d="M 18.671875 28.625 L 29.46875 28.625 L 29.46875 40.191406 L 18.671875 40.191406 Z M 18.671875 28.625 "/>
<path style=" stroke:none;fill-rule:nonzero;fill:rgb(29.803923%,68.627453%,31.37255%);fill-opacity:1;" d="M 18.671875 34.796875 L 20.214844 40.191406 L 14.046875 40.191406 Z M 29.390625 34.796875 L 27.847656 40.191406 L 34.015625 40.191406 Z M 29.390625 34.796875 "/>
<path style=" stroke:none;fill-rule:nonzero;fill:rgb(25.882354%,25.882354%,25.882354%);fill-opacity:1;" d="M 42.421875 26.621094 C 42.035156 25.3125 41.34375 25.003906 40.957031 24 C 40.570312 22.996094 41.34375 21.609375 40.878906 20.683594 C 40.109375 19.296875 39.335938 19.449219 38.796875 18.523438 C 38.257812 17.601562 38.875 16.367188 38.488281 15.671875 C 38.027344 14.824219 36.871094 14.671875 36.328125 13.976562 C 35.789062 13.203125 35.867188 12.125 35.328125 11.585938 C 34.789062 11.046875 33.785156 10.96875 33.246094 10.582031 C 30.699219 8.578125 28.617188 9.347656 28.617188 9.347656 C 28.617188 9.347656 27.539062 7.808594 24.765625 7.808594 C 24.070312 7.808594 22.988281 7.808594 21.757812 8.039062 C 20.753906 8.191406 20.601562 8.578125 19.367188 9.042969 C 18.59375 9.347656 17.363281 9.195312 16.589844 9.65625 C 15.820312 10.121094 15.585938 11.121094 14.816406 11.738281 C 14.277344 12.203125 13.042969 12.203125 12.503906 12.742188 C 11.964844 13.203125 12.117188 14.285156 11.65625 14.902344 C 11.191406 15.519531 9.882812 15.441406 9.417969 16.828125 C 8.957031 18.21875 9.652344 18.449219 8.957031 19.449219 C 8.492188 20.222656 7.261719 20.066406 6.71875 21.222656 C 6.257812 22.226562 7.027344 23.382812 6.71875 24.152344 C 6.410156 24.925781 6.488281 24.386719 5.640625 26.160156 C 4.871094 27.933594 6.335938 29.9375 8.570312 31.632812 C 8.570312 31.632812 14.277344 34.71875 17.902344 34.71875 C 17.976562 34.71875 17.976562 34.71875 18.054688 34.71875 C 22.449219 34.71875 30.238281 34.71875 30.238281 34.71875 C 30.316406 34.71875 30.316406 34.71875 30.390625 34.71875 C 33.941406 34.71875 39.566406 31.480469 39.566406 31.480469 C 41.804688 29.859375 42.808594 28.007812 42.421875 26.621094 Z M 42.421875 26.621094 "/>
<path style=" stroke:none;fill-rule:nonzero;fill:rgb(89.803922%,52.156866%,18.039216%);fill-opacity:1;" d="M 27.078125 13.203125 C 27.078125 13.203125 23.914062 13.128906 21.0625 15.671875 C 17.128906 19.140625 14.816406 24.152344 14.816406 29.398438 L 14.816406 30.167969 C 14.816406 33.636719 20.910156 37.109375 23.296875 37.109375 L 24.839844 37.109375 C 27.078125 37.109375 33.324219 33.636719 33.324219 30.167969 L 33.324219 21.6875 C 33.246094 18.523438 31.933594 13.589844 27.078125 13.203125 Z M 27.078125 13.203125 "/>
<path style=" stroke:none;fill-rule:nonzero;fill:rgb(89.803922%,52.156866%,18.039216%);fill-opacity:1;" d="M 27.152344 14.671875 L 28.617188 9.425781 L 28.695312 14.902344 Z M 27.152344 14.671875 "/>
<path style=" stroke:none;fill-rule:nonzero;fill:rgb(12.941177%,12.941177%,12.941177%);fill-opacity:1;" d="M 20.984375 23.613281 C 20.984375 24.230469 20.445312 24.769531 19.828125 24.769531 C 19.210938 24.769531 18.671875 24.230469 18.671875 23.613281 C 18.671875 22.996094 19.210938 22.457031 19.828125 22.457031 C 20.445312 22.457031 20.984375 22.996094 20.984375 23.613281 Z M 28.3125 22.457031 C 27.695312 22.457031 27.152344 22.996094 27.152344 23.613281 C 27.152344 24.230469 27.695312 24.769531 28.3125 24.769531 C 28.925781 24.769531 29.46875 24.230469 29.46875 23.613281 C 29.46875 22.996094 29.003906 22.457031 28.3125 22.457031 Z M 28.3125 22.457031 "/>
<path style=" stroke:none;fill-rule:nonzero;fill:rgb(89.803922%,52.156866%,18.039216%);fill-opacity:1;" d="M 27.925781 35.566406 C 27.925781 34.253906 26.230469 33.253906 24.070312 33.253906 C 21.910156 33.253906 20.214844 34.253906 20.214844 35.566406 C 20.214844 36.878906 21.910156 37.878906 24.070312 37.878906 C 26.230469 37.878906 27.925781 36.878906 27.925781 35.566406 Z M 27.925781 35.566406 "/>
<path style=" stroke:none;fill-rule:nonzero;fill:rgb(75.686276%,43.137255%,7.843138%);fill-opacity:1;" d="M 24.070312 32.480469 C 21.371094 32.480469 19.90625 31.632812 19.828125 31.632812 L 20.601562 30.324219 C 20.601562 30.324219 21.832031 31.015625 24.070312 31.015625 C 26.304688 31.015625 27.539062 30.324219 27.539062 30.324219 L 28.3125 31.632812 C 28.234375 31.632812 26.769531 32.480469 24.070312 32.480469 Z M 24.070312 32.480469 "/>
</g>
</svg>
