<?xml version="1.0" encoding="UTF-8"?>
<svg xmlns="http://www.w3.org/2000/svg" xmlns:xlink="http://www.w3.org/1999/xlink" width="48pt" height="48pt" viewBox="0 0 48 48" version="1.1">
<g id="surface7155262">
<path style=" stroke:none;fill-rule:nonzero;fill:rgb(92.54902%,94.117647%,94.509804%);fill-opacity:1;" d="M 24 48 C 10.746094 48 0 37.253906 0 24 C 0 10.746094 10.746094 0 24 0 C 37.253906 0 48 10.746094 48 24 C 48 37.253906 37.253906 48 24 48 Z M 24 48 "/>
<path style=" stroke:none;fill-rule:nonzero;fill:rgb(56.470591%,64.313728%,68.235296%);fill-opacity:1;" d="M 30.199219 34.398438 L 15.800781 34.398438 L 15 42.398438 L 31 42.398438 Z M 30.199219 34.398438 "/>
<path style=" stroke:none;fill-rule:nonzero;fill:rgb(21.568628%,27.843139%,30.980393%);fill-opacity:1;" d="M 22.199219 39.199219 L 20.601562 42.398438 L 25.398438 42.398438 L 23.800781 39.199219 Z M 22.199219 39.199219 "/>
<path style=" stroke:none;fill-rule:nonzero;fill:rgb(100%,65.490198%,14.901961%);fill-opacity:1;" d="M 32.429688 24.574219 C 32.550781 23.957031 32.839844 23.378906 33.253906 22.917969 C 33.582031 22.546875 34.113281 22.242188 34.539062 22.488281 C 34.949219 22.722656 35 23.300781 35 23.785156 C 35 24.621094 35 25.460938 34.992188 26.296875 C 34.988281 26.757812 34.980469 27.222656 34.847656 27.660156 C 34.710938 28.125 34.4375 28.53125 34.164062 28.925781 C 33.933594 29.25 33.703125 29.574219 33.464844 29.890625 C 33.253906 30.171875 32.957031 30.480469 32.628906 30.382812 C 32.511719 30.347656 32.414062 30.261719 32.324219 30.179688 C 32.148438 30.027344 31.976562 29.875 31.800781 29.722656 Z M 13.570312 24.574219 C 13.449219 23.957031 13.160156 23.378906 12.746094 22.917969 C 12.417969 22.546875 11.886719 22.242188 11.460938 22.488281 C 11.050781 22.722656 11 23.300781 11 23.785156 C 11 24.621094 11 25.460938 11.007812 26.296875 C 11.011719 26.757812 11.019531 27.222656 11.152344 27.660156 C 11.289062 28.125 11.5625 28.53125 11.835938 28.925781 C 12.066406 29.25 12.296875 29.574219 12.535156 29.890625 C 12.746094 30.171875 13.042969 30.480469 13.371094 30.382812 C 13.488281 30.347656 13.585938 30.261719 13.675781 30.179688 C 13.851562 30.027344 14.023438 29.875 14.199219 29.722656 Z M 13.570312 24.574219 "/>
<path style=" stroke:none;fill-rule:nonzero;fill:rgb(98.431373%,54.901963%,0%);fill-opacity:1;" d="M 34.199219 25.601562 C 34.199219 27.265625 33.398438 28 33.398438 28 L 33.398438 26.398438 C 32.957031 26.398438 32.601562 26.042969 32.601562 25.601562 C 32.601562 25.160156 32.957031 24.800781 33.398438 24.800781 C 33.839844 24.800781 34.199219 25.160156 34.199219 25.601562 Z M 11.800781 25.601562 C 11.800781 27.265625 12.601562 28 12.601562 28 L 12.601562 26.398438 C 13.042969 26.398438 13.398438 26.042969 13.398438 25.601562 C 13.398438 25.160156 13.042969 24.800781 12.601562 24.800781 C 12.160156 24.800781 11.800781 25.160156 11.800781 25.601562 Z M 11.800781 25.601562 "/>
<path style=" stroke:none;fill-rule:nonzero;fill:rgb(100%,71.764708%,30.19608%);fill-opacity:1;" d="M 21.398438 39.199219 C 18.949219 39.199219 13.398438 34.351562 13.398438 29.601562 L 13.398438 13.601562 C 13.398438 13.601562 13.632812 7.199219 23 7.199219 C 32.367188 7.199219 32.601562 13.601562 32.601562 13.601562 L 32.601562 29.601562 C 32.601562 34.351562 26.949219 39.199219 24.601562 39.199219 Z M 21.398438 39.199219 "/>
<path style=" stroke:none;fill-rule:nonzero;fill:rgb(98.431373%,54.901963%,0%);fill-opacity:1;" d="M 19 32 L 27 32 L 27 33.601562 L 19 33.601562 Z M 19 32 "/>
<path style=" stroke:none;fill-rule:nonzero;fill:rgb(30.588236%,20.392157%,18.039216%);fill-opacity:1;" d="M 19.800781 23.601562 C 19.800781 24.261719 19.261719 24.800781 18.601562 24.800781 C 17.9375 24.800781 17.398438 24.261719 17.398438 23.601562 C 17.398438 22.9375 17.9375 22.398438 18.601562 22.398438 C 19.261719 22.398438 19.800781 22.9375 19.800781 23.601562 Z M 27.398438 22.398438 C 26.738281 22.398438 26.199219 22.9375 26.199219 23.601562 C 26.199219 24.261719 26.738281 24.800781 27.398438 24.800781 C 28.0625 24.800781 28.601562 24.261719 28.601562 23.601562 C 28.601562 22.9375 28.0625 22.398438 27.398438 22.398438 Z M 27.398438 22.398438 "/>
<path style=" stroke:none;fill-rule:nonzero;fill:rgb(81.176472%,84.705883%,86.274511%);fill-opacity:1;" d="M 34.199219 16 C 34.199219 7.71875 27.160156 5.601562 23 5.601562 C 18.839844 5.601562 18.199219 8 18.199219 8 L 20.28125 12.011719 C 20.386719 12.007812 20.488281 12 20.601562 12 L 25.398438 12 C 30.648438 12 31.644531 16.246094 31.800781 18.550781 L 31.800781 28 L 29.058594 31.65625 C 27.03125 29.65625 23 29.601562 23 29.601562 C 23 29.601562 18.886719 29.460938 16.878906 31.574219 L 14.199219 28 L 14.199219 18.441406 C 14.347656 16.398438 15.167969 12.972656 18.894531 12.171875 L 18.199219 8 C 18.199219 8 11.800781 8.433594 11.800781 16 L 11.800781 22.398438 L 12.601562 23.199219 L 12.601562 29.601562 C 12.601562 32.058594 14.300781 34.535156 16.277344 36.359375 C 17.871094 39.453125 23 40 23 40 C 23 40 28.203125 39.445312 29.753906 36.292969 C 31.714844 34.476562 33.398438 32.027344 33.398438 29.601562 L 33.398438 23.199219 L 34.199219 22.398438 C 34.199219 22.398438 34.199219 19.601562 34.199219 16 Z M 23 32 C 23 32 27 32 27 34.398438 C 27 34.398438 27.003906 36 25.398438 36 C 23.796875 36 23.800781 34.398438 23.800781 34.398438 L 23.800781 33.601562 L 22.199219 33.601562 L 22.199219 34.398438 C 22.199219 34.398438 22.203125 36 20.601562 36 C 18.996094 36 19 34.398438 19 34.398438 C 19 31.949219 23 32 23 32 Z M 23 32 "/>
</g>
</svg>
